{"title":"Thunderbirds Are Go S01E18 Recharge 1080P WEB-DL DD5 1 H 264","uid":12870451,"size":953100106,"categoryP":"video","categoryS":"hd___tv_shows","magnet":"?xt=urn:btih:6fd0d386a2e24580abf5658540d63885689503f0&amp;dn=Thunderbirds+Are+Go+S01E18+Recharge+1080P+WEB-DL+DD5+1+H+264&amp;tr=udp%3A%2F%2Ftracker.leechers-paradise.org%3A6969&amp;tr=udp%3A%2F%2Fzer0day.ch%3A1337&amp;tr=udp%3A%2F%2Fopen.demonii.com%3A1337&amp;tr=udp%3A%2F%2Ftracker.coppersurfer.tk%3A6969&amp;tr=udp%3A%2F%2Fexodus.desync.com%3A6969","seeders":0,"leechers":0,"uploader":"jmanwf","files":1,"time":1448875675,"description":"High in the arctic, a machine designed to harness the energy of the aurora borealis has gone haywire. If not repaired, not only does it threaten a massive energy discharge, but it could permanently disrupt the magnetic field protecting the Earth. Scott and Virgil answer the call in TB1 and TB2, despite Virgil's insistence that they both need a break. Complicating matters is the fact that an atmospheric approach will be impossible, which forces Scott and Virgil to configure SKI PODS to get there in time. During transport, Scott admits to Virgil of the burdens he feels as the leader. The crisis is ultimately averted with the help of Max the Robot, and the brothers return home for some well-needed R and R.\r\n\r\n\r\n\r\n\r\nVideo\r\nID : 2\r\nFormat : AVC\r\nFormat/Info : Advanced Video Codec\r\nFormat profile :   \r\nFormat settings, CABAC : Yes\r\nFormat settings, ReFrames : 4 frames\r\nCodec ID : avc1\r\nCodec ID/Info : Advanced Video Coding\r\nDuration : 22mn 14s\r\nBit rate : 5 202 Kbps\r\nWidth : 1 912 pixels\r\nHeight : 1 072 pixels\r\nDisplay aspect ratio : 16:9\r\nFrame rate mode : Constant\r\nFrame rate : 25.000 fps\r\nColor space : YUV\r\nChroma subsampling : 4:2:0\r\nBit depth : 8 bits\r\nScan type : Progressive\r\nBits/(Pixel*Frame) : 0.102\r\nStream size : 827 MiB (91%)\r\nLanguage : English\r\nEncoded date : UTC 2015-11-30 05:45:05\r\nTagged date : UTC 2015-11-30 05:47:31\r\nColor range : Limited\r\nColor primaries : BT.709\r\nTransfer characteristics : BT.709\r\nMatrix coefficients : BT.709\r\n\r\nAudio #1\r\nID : 1\r\nFormat : AAC\r\nFormat/Info : Advanced Audio Codec\r\nFormat profile : LC\r\nCodec ID : 40\r\nDuration : 22mn 14s\r\nBit rate mode : Variable\r\nBit rate : 125 Kbps\r\nMaximum bit rate : 199 Kbps\r\nChannel(s) : 2 channels\r\nChannel positions : Front: L R\r\nSampling rate : 48.0 KHz\r\nCompression mode : Lossy\r\nStream size : 19.9 MiB (2%)\r\nLanguage : English\r\nEncoded date : UTC 2015-11-30 05:45:05\r\nTagged date : UTC 2015-11-30 05:47:31\r\n\r\nAudio #2\r\nID : 3\r\nFormat : AC-3\r\nFormat/Info : Audio Coding 3\r\nMode extension : CM (complete main)\r\nFormat settings, Endianness : Big\r\nCodec ID : ac-3\r\nDuration : 22mn 14s\r\nBit rate mode : Constant\r\nBit rate : 384 Kbps\r\nChannel(s) : 6 channels\r\nChannel positions : Front: L C R, Side: L R, LFE\r\nSampling rate : 48.0 KHz\r\nBit depth : 16 bits\r\nCompression mode : Lossy\r\nStream size : 61.1 MiB (7%)\r\nLanguage : English\r\nEncoded date : UTC 2015-11-30 05:45:05\r\nTagged date : UTC 2015-11-30 05:47:31\r\n\r\n\r\n \nhttps://itunes.apple.com/au/tv-season/thunderbirds-are-go-vol.-2/id1050875675","torrent":{"xt":"urn:btih:6fd0d386a2e24580abf5658540d63885689503f0","amp;dn":"Thunderbirds+Are+Go+S01E18+Recharge+1080P+WEB-DL+DD5+1+H+264","amp;tr":["udp%3A%2F%2Ftracker.leechers-paradise.org%3A6969","udp%3A%2F%2Fzer0day.ch%3A1337","udp%3A%2F%2Fopen.demonii.com%3A1337","udp%3A%2F%2Ftracker.coppersurfer.tk%3A6969","udp%3A%2F%2Fexodus.desync.com%3A6969"],"infoHash":"6fd0d386a2e24580abf5658540d63885689503f0","infoHashBuffer":{"type":"Buffer","data":[111,208,211,134,162,226,69,128,171,245,101,133,64,214,56,133,104,149,3,240]},"announce":[],"urlList":[]}}